<svg xmlns="http://www.w3.org/2000/svg" xmlns:xlink="http://www.w3.org/1999/xlink" width="250" zoomAndPan="magnify" viewBox="0 0 187.5 74.999997" height="100" preserveAspectRatio="xMidYMid meet" version="1.0"><defs><g/><clipPath id="d5feb13406"><path d="M 0 9 L 59.839844 9 L 59.839844 68 L 0 68 Z M 0 9 " clip-rule="nonzero"/></clipPath></defs><g clip-path="url(#d5feb13406)"><path fill="#ffffff" d="M 54.53125 38.585938 C 51.476562 35.546875 47.515625 34.042969 43.566406 34.089844 C 44.148438 32.410156 45.121094 30.855469 46.414062 29.5625 C 48.90625 27.070312 52.253906 25.792969 55.761719 26.035156 C 55.777344 26.308594 55.792969 26.585938 55.792969 26.878906 C 55.792969 29.300781 55.035156 31.695312 53.59375 33.734375 C 54.515625 34.300781 55.375 34.964844 56.183594 35.707031 C 58.835938 32.003906 59.644531 27.410156 58.578125 23.222656 C 53.613281 21.960938 48.078125 23.320312 44.117188 27.265625 C 42.046875 29.351562 40.722656 31.890625 40.074219 34.542969 C 39.914062 35.191406 39.800781 35.851562 39.734375 36.515625 L 39.703125 36.515625 C 35.191406 36.515625 31.535156 32.859375 31.535156 28.347656 C 34.898438 28.007812 38.183594 26.523438 40.785156 23.933594 C 44.730469 19.972656 46.089844 14.441406 44.828125 9.476562 C 39.863281 8.214844 34.332031 9.570312 30.371094 13.519531 C 27.332031 16.574219 25.828125 20.535156 25.875 24.484375 C 24.191406 23.902344 22.640625 22.929688 21.347656 21.636719 C 18.855469 19.148438 17.578125 15.796875 17.820312 12.289062 C 18.09375 12.273438 18.371094 12.257812 18.660156 12.257812 C 21.085938 12.257812 23.480469 13.015625 25.519531 14.457031 C 26.085938 13.535156 26.75 12.675781 27.492188 11.867188 C 23.789062 9.214844 19.195312 8.40625 15.007812 9.476562 C 13.746094 14.441406 15.105469 19.972656 19.050781 23.933594 C 21.136719 26.003906 23.675781 27.332031 26.328125 27.976562 C 26.972656 28.136719 27.636719 28.253906 28.300781 28.316406 L 28.300781 28.347656 C 28.300781 32.859375 24.644531 36.515625 20.132812 36.515625 C 19.792969 33.152344 18.304688 29.867188 15.71875 27.265625 C 11.757812 23.320312 6.222656 21.960938 1.257812 23.222656 C 0 28.1875 1.355469 33.71875 5.304688 37.679688 C 8.359375 40.71875 12.320312 42.226562 16.269531 42.175781 C 15.6875 43.859375 14.714844 45.410156 13.421875 46.703125 C 10.929688 49.195312 7.582031 50.472656 4.074219 50.230469 C 4.058594 49.957031 4.042969 49.679688 4.042969 49.390625 C 4.042969 46.964844 4.800781 44.570312 6.242188 42.53125 C 5.320312 41.964844 4.460938 41.304688 3.652344 40.558594 C 1.761719 43.203125 0.808594 46.296875 0.804688 49.375 L 0.804688 49.464844 C 0.808594 50.667969 0.960938 51.871094 1.257812 53.042969 C 6.222656 54.304688 11.757812 52.945312 15.71875 49 C 17.789062 46.914062 19.113281 44.375 19.761719 41.722656 C 19.921875 41.078125 20.035156 40.414062 20.101562 39.75 L 20.132812 39.75 C 24.644531 39.75 28.300781 43.40625 28.300781 47.917969 C 24.9375 48.257812 21.652344 49.746094 19.050781 52.332031 C 15.105469 56.296875 13.746094 61.828125 15.007812 66.792969 C 19.972656 68.054688 25.503906 66.695312 29.464844 62.746094 C 32.503906 59.691406 34.007812 55.730469 33.960938 51.785156 C 35.644531 52.367188 37.195312 53.335938 38.488281 54.628906 C 40.980469 57.121094 42.257812 60.46875 42.015625 63.976562 C 41.742188 63.992188 41.464844 64.007812 41.175781 64.007812 C 38.75 64.007812 36.355469 63.25 34.316406 61.808594 C 33.75 62.730469 33.085938 63.589844 32.34375 64.398438 C 36.046875 67.050781 40.640625 67.859375 44.828125 66.792969 C 46.089844 61.828125 44.730469 56.296875 40.785156 52.332031 C 38.699219 50.261719 36.160156 48.9375 33.507812 48.289062 C 32.863281 48.128906 32.199219 48.015625 31.535156 47.949219 L 31.535156 47.917969 C 31.535156 43.40625 35.191406 39.75 39.703125 39.75 C 40.042969 43.113281 41.53125 46.398438 44.117188 49 C 48.078125 52.945312 53.613281 54.304688 58.578125 53.042969 C 59.835938 48.078125 58.480469 42.546875 54.53125 38.585938 M 16.949219 38.910156 C 13.535156 39.152344 10.089844 37.890625 7.597656 35.382812 C 5.109375 32.894531 3.832031 29.546875 4.074219 26.035156 C 4.347656 26.019531 4.625 26.003906 4.898438 26.003906 C 8.035156 26.003906 11.140625 27.265625 13.421875 29.5625 C 15.914062 32.050781 17.191406 35.398438 16.949219 38.910156 Z M 32.667969 15.816406 C 35.15625 13.324219 38.503906 12.046875 42.015625 12.289062 C 42.03125 12.5625 42.046875 12.839844 42.046875 13.113281 C 42.046875 16.25 40.785156 19.355469 38.488281 21.636719 C 36 24.128906 32.652344 25.40625 29.140625 25.164062 C 29.125 24.886719 29.109375 24.613281 29.109375 24.335938 C 29.109375 21.199219 30.371094 18.09375 32.667969 15.816406 Z M 27.167969 60.453125 C 24.679688 62.941406 21.332031 64.21875 17.820312 63.976562 C 17.804688 63.703125 17.789062 63.425781 17.789062 63.152344 C 17.789062 60.015625 19.050781 56.910156 21.347656 54.628906 C 23.835938 52.140625 27.183594 50.859375 30.695312 51.105469 C 30.710938 51.378906 30.726562 51.652344 30.726562 51.929688 C 30.726562 55.066406 29.464844 58.171875 27.167969 60.453125 Z M 29.917969 41.367188 C 28.140625 41.367188 26.683594 39.914062 26.683594 38.132812 C 26.683594 36.355469 28.140625 34.898438 29.917969 34.898438 C 31.695312 34.898438 33.152344 36.355469 33.152344 38.132812 C 33.152344 39.914062 31.695312 41.367188 29.917969 41.367188 Z M 55.761719 50.230469 C 52.351562 50.472656 48.90625 49.210938 46.414062 46.707031 C 43.921875 44.214844 42.644531 40.867188 42.886719 37.355469 C 43.164062 37.339844 43.4375 37.324219 43.714844 37.324219 C 46.851562 37.324219 49.957031 38.585938 52.238281 40.882812 C 54.726562 43.375 56.003906 46.71875 55.761719 50.230469 Z M 55.761719 50.230469 " fill-opacity="1" fill-rule="evenodd"/></g><g fill="#ffffff" fill-opacity="1"><g transform="translate(70.83567, 55.679249)"><g><path d="M 6.59375 0 L 0 0 C -0.113281 0 -0.195312 -0.0546875 -0.25 -0.171875 C -0.3125 -0.285156 -0.320312 -0.394531 -0.28125 -0.5 L 1.296875 -3.265625 C 1.296875 -6.992188 1.296875 -9.972656 1.296875 -12.203125 C 1.296875 -14.441406 1.296875 -16.113281 1.296875 -17.21875 C 1.296875 -18.332031 1.296875 -19.078125 1.296875 -19.453125 C 1.296875 -19.835938 1.296875 -20.035156 1.296875 -20.046875 C 1.296875 -20.066406 1.296875 -20.085938 1.296875 -20.109375 C 1.296875 -20.128906 1.296875 -20.328125 1.296875 -20.703125 C 1.296875 -21.078125 1.296875 -21.816406 1.296875 -22.921875 C 1.296875 -24.035156 1.296875 -25.710938 1.296875 -27.953125 C 1.296875 -30.191406 1.296875 -33.171875 1.296875 -36.890625 L -0.28125 -39.65625 C -0.320312 -39.769531 -0.3125 -39.878906 -0.25 -39.984375 C -0.195312 -40.097656 -0.113281 -40.15625 0 -40.15625 L 6.59375 -40.15625 C 8.03125 -40.15625 9.265625 -39.6875 10.296875 -38.75 C 11.328125 -37.8125 11.84375 -36.679688 11.84375 -35.359375 L 11.84375 -33.90625 C 11.84375 -32.769531 11.644531 -31.84375 11.25 -31.125 C 10.851562 -30.414062 10.363281 -29.832031 9.78125 -29.375 C 9.195312 -28.925781 8.609375 -28.515625 8.015625 -28.140625 C 8.984375 -27.953125 9.863281 -27.472656 10.65625 -26.703125 C 11.445312 -25.929688 11.84375 -24.867188 11.84375 -23.515625 L 11.84375 -4.796875 C 11.84375 -3.484375 11.328125 -2.351562 10.296875 -1.40625 C 9.265625 -0.46875 8.03125 0 6.59375 0 Z M 6.59375 -37 L 5.25 -37 L 5.25 -29.890625 C 6 -30.378906 6.625 -30.90625 7.125 -31.46875 C 7.632812 -32.039062 7.890625 -32.851562 7.890625 -33.90625 L 7.890625 -35.703125 C 7.890625 -36.078125 7.765625 -36.382812 7.515625 -36.625 C 7.273438 -36.875 6.96875 -37 6.59375 -37 Z M 6.59375 -25.328125 C 6.21875 -25.328125 5.898438 -25.203125 5.640625 -24.953125 C 5.378906 -24.710938 5.25 -24.40625 5.25 -24.03125 L 5.25 -3.15625 L 6.59375 -3.15625 C 6.96875 -3.15625 7.273438 -3.273438 7.515625 -3.515625 C 7.765625 -3.765625 7.890625 -4.078125 7.890625 -4.453125 L 7.890625 -24.03125 C 7.890625 -24.40625 7.765625 -24.710938 7.515625 -24.953125 C 7.273438 -25.203125 6.96875 -25.328125 6.59375 -25.328125 Z M 6.59375 -25.328125 "/></g></g></g><g fill="#ffffff" fill-opacity="1"><g transform="translate(86.11844, 55.679249)"><g><path d="M 13.203125 0 L 0 0 C -0.113281 0 -0.195312 -0.0546875 -0.25 -0.171875 C -0.3125 -0.285156 -0.320312 -0.394531 -0.28125 -0.5 L 1.359375 -3.265625 L 1.359375 -24.03125 C 1.359375 -25.6875 1.742188 -26.898438 2.515625 -27.671875 C 3.285156 -28.441406 4.082031 -29.085938 4.90625 -29.609375 C 5.726562 -30.140625 6.429688 -30.695312 7.015625 -31.28125 C 7.597656 -31.863281 7.890625 -32.738281 7.890625 -33.90625 L 7.890625 -36.546875 C 7.890625 -36.890625 7.765625 -37.191406 7.515625 -37.453125 C 7.273438 -37.710938 6.96875 -37.84375 6.59375 -37.84375 C 6.21875 -37.84375 5.90625 -37.710938 5.65625 -37.453125 C 5.414062 -37.191406 5.296875 -36.890625 5.296875 -36.546875 L 5.296875 -31.921875 C 5.296875 -31.703125 5.1875 -31.59375 4.96875 -31.59375 L 1.640625 -31.59375 C 1.453125 -31.59375 1.359375 -31.703125 1.359375 -31.921875 L 1.359375 -39.828125 C 1.359375 -40.160156 1.507812 -40.253906 1.8125 -40.109375 L 2.9375 -39.484375 C 4.019531 -40.390625 5.238281 -40.84375 6.59375 -40.84375 C 8.03125 -40.84375 9.265625 -40.363281 10.296875 -39.40625 C 11.328125 -38.445312 11.84375 -37.304688 11.84375 -35.984375 L 11.84375 -3.265625 L 13.484375 -0.5 C 13.554688 -0.394531 13.554688 -0.285156 13.484375 -0.171875 C 13.410156 -0.0546875 13.316406 0 13.203125 0 Z M 5.296875 -24.03125 L 5.296875 -11.0625 L 7.890625 -11.0625 L 7.890625 -28.03125 C 7.179688 -27.539062 6.570312 -27.023438 6.0625 -26.484375 C 5.550781 -25.941406 5.296875 -25.125 5.296875 -24.03125 Z M 5.296875 -7.890625 L 5.296875 -3.265625 L 6.59375 -1.015625 L 7.890625 -3.265625 L 7.890625 -7.890625 Z M 5.296875 -7.890625 "/></g></g></g><g fill="#ffffff" fill-opacity="1"><g transform="translate(101.40121, 55.679249)"><g><path d="M 6.375 0.90625 C 4.757812 -0.75 3.519531 -2.617188 2.65625 -4.703125 C 1.789062 -6.796875 1.359375 -8.988281 1.359375 -11.28125 L 1.359375 -15.796875 C 1.359375 -16.015625 1.46875 -16.125 1.6875 -16.125 L 4.96875 -16.125 C 5.1875 -16.125 5.296875 -16.015625 5.296875 -15.796875 L 5.296875 -9.140625 C 5.296875 -7.109375 5.726562 -5.171875 6.59375 -3.328125 C 7.5 -5.128906 7.953125 -7.066406 7.953125 -9.140625 L 7.953125 -16.125 C 7.953125 -17.257812 7.648438 -18.117188 7.046875 -18.703125 C 6.441406 -19.285156 5.75 -19.835938 4.96875 -20.359375 C 4.132812 -20.921875 3.320312 -21.597656 2.53125 -22.390625 C 1.75 -23.179688 1.359375 -24.382812 1.359375 -26 L 1.359375 -36.890625 L -0.21875 -39.65625 C -0.300781 -39.769531 -0.3125 -39.878906 -0.25 -39.984375 C -0.195312 -40.097656 -0.09375 -40.15625 0.0625 -40.15625 L 13.203125 -40.15625 C 13.347656 -40.15625 13.445312 -40.097656 13.5 -39.984375 C 13.5625 -39.878906 13.554688 -39.769531 13.484375 -39.65625 L 11.90625 -36.890625 L 11.90625 -11.28125 C 11.90625 -8.988281 11.472656 -6.796875 10.609375 -4.703125 C 9.742188 -2.617188 8.5 -0.75 6.875 0.90625 C 6.726562 1.019531 6.5625 1.019531 6.375 0.90625 Z M 6.59375 -39.140625 L 5.296875 -36.890625 L 5.296875 -26 C 5.296875 -24.875 5.554688 -24.03125 6.078125 -23.46875 C 6.609375 -22.90625 7.234375 -22.359375 7.953125 -21.828125 L 7.953125 -36.890625 Z M 6.59375 -39.140625 "/></g></g></g><g fill="#ffffff" fill-opacity="1"><g transform="translate(116.683979, 55.679249)"><g><path d="M 11.84375 -35.359375 L 11.84375 -4.796875 C 11.84375 -3.484375 11.328125 -2.351562 10.296875 -1.40625 C 9.265625 -0.46875 8.03125 0 6.59375 0 L 0 0 C -0.113281 0 -0.195312 -0.0546875 -0.25 -0.171875 C -0.3125 -0.285156 -0.320312 -0.394531 -0.28125 -0.5 L 1.296875 -3.265625 C 1.296875 -6.992188 1.296875 -9.972656 1.296875 -12.203125 C 1.296875 -14.441406 1.296875 -16.113281 1.296875 -17.21875 C 1.296875 -18.332031 1.296875 -19.078125 1.296875 -19.453125 C 1.296875 -19.835938 1.296875 -20.035156 1.296875 -20.046875 C 1.296875 -20.066406 1.296875 -20.085938 1.296875 -20.109375 C 1.296875 -20.128906 1.296875 -20.328125 1.296875 -20.703125 C 1.296875 -21.078125 1.296875 -21.816406 1.296875 -22.921875 C 1.296875 -24.035156 1.296875 -25.710938 1.296875 -27.953125 C 1.296875 -30.191406 1.296875 -33.171875 1.296875 -36.890625 L -0.28125 -39.65625 C -0.320312 -39.769531 -0.3125 -39.878906 -0.25 -39.984375 C -0.195312 -40.097656 -0.113281 -40.15625 0 -40.15625 L 6.59375 -40.15625 C 8.03125 -40.15625 9.265625 -39.6875 10.296875 -38.75 C 11.328125 -37.8125 11.84375 -36.679688 11.84375 -35.359375 Z M 5.25 -3.15625 L 6.59375 -3.15625 C 6.96875 -3.15625 7.273438 -3.273438 7.515625 -3.515625 C 7.765625 -3.765625 7.890625 -4.078125 7.890625 -4.453125 L 7.890625 -35.703125 C 7.890625 -36.078125 7.765625 -36.382812 7.515625 -36.625 C 7.273438 -36.875 6.96875 -37 6.59375 -37 L 5.25 -37 Z M 5.25 -3.15625 "/></g></g></g><g fill="#ffffff" fill-opacity="1"><g transform="translate(131.966749, 55.679249)"><g><path d="M 13.203125 0 L 0 0 C -0.113281 0 -0.195312 -0.0546875 -0.25 -0.171875 C -0.3125 -0.285156 -0.320312 -0.394531 -0.28125 -0.5 L 1.359375 -3.265625 L 1.359375 -24.03125 C 1.359375 -25.6875 1.742188 -26.898438 2.515625 -27.671875 C 3.285156 -28.441406 4.082031 -29.085938 4.90625 -29.609375 C 5.726562 -30.140625 6.429688 -30.695312 7.015625 -31.28125 C 7.597656 -31.863281 7.890625 -32.738281 7.890625 -33.90625 L 7.890625 -36.546875 C 7.890625 -36.890625 7.765625 -37.191406 7.515625 -37.453125 C 7.273438 -37.710938 6.96875 -37.84375 6.59375 -37.84375 C 6.21875 -37.84375 5.90625 -37.710938 5.65625 -37.453125 C 5.414062 -37.191406 5.296875 -36.890625 5.296875 -36.546875 L 5.296875 -31.921875 C 5.296875 -31.703125 5.1875 -31.59375 4.96875 -31.59375 L 1.640625 -31.59375 C 1.453125 -31.59375 1.359375 -31.703125 1.359375 -31.921875 L 1.359375 -39.828125 C 1.359375 -40.160156 1.507812 -40.253906 1.8125 -40.109375 L 2.9375 -39.484375 C 4.019531 -40.390625 5.238281 -40.84375 6.59375 -40.84375 C 8.03125 -40.84375 9.265625 -40.363281 10.296875 -39.40625 C 11.328125 -38.445312 11.84375 -37.304688 11.84375 -35.984375 L 11.84375 -3.265625 L 13.484375 -0.5 C 13.554688 -0.394531 13.554688 -0.285156 13.484375 -0.171875 C 13.410156 -0.0546875 13.316406 0 13.203125 0 Z M 5.296875 -24.03125 L 5.296875 -11.0625 L 7.890625 -11.0625 L 7.890625 -28.03125 C 7.179688 -27.539062 6.570312 -27.023438 6.0625 -26.484375 C 5.550781 -25.941406 5.296875 -25.125 5.296875 -24.03125 Z M 5.296875 -7.890625 L 5.296875 -3.265625 L 6.59375 -1.015625 L 7.890625 -3.265625 L 7.890625 -7.890625 Z M 5.296875 -7.890625 "/></g></g></g><g fill="#ffffff" fill-opacity="1"><g transform="translate(147.249519, 55.679249)"><g><path d="M 13.203125 0 L 0.0625 0 C -0.09375 0 -0.195312 -0.0546875 -0.25 -0.171875 C -0.3125 -0.285156 -0.300781 -0.394531 -0.21875 -0.5 L 1.359375 -3.265625 L 1.359375 -36.890625 L -0.21875 -39.65625 C -0.300781 -39.769531 -0.3125 -39.878906 -0.25 -39.984375 C -0.195312 -40.097656 -0.09375 -40.15625 0.0625 -40.15625 L 6.59375 -40.15625 C 8.0625 -40.15625 9.3125 -39.6875 10.34375 -38.75 C 11.382812 -37.8125 11.90625 -36.679688 11.90625 -35.359375 L 11.90625 -33.90625 C 11.90625 -32.769531 11.707031 -31.84375 11.3125 -31.125 C 10.914062 -30.414062 10.425781 -29.832031 9.84375 -29.375 C 9.257812 -28.925781 8.664062 -28.515625 8.0625 -28.140625 C 9.039062 -27.953125 9.925781 -27.472656 10.71875 -26.703125 C 11.507812 -25.929688 11.90625 -24.867188 11.90625 -23.515625 L 11.90625 -3.265625 L 13.484375 -0.5 C 13.554688 -0.394531 13.5625 -0.285156 13.5 -0.171875 C 13.445312 -0.0546875 13.347656 0 13.203125 0 Z M 6.59375 -37 L 5.296875 -37 L 5.296875 -29.78125 C 6.015625 -30.3125 6.632812 -30.859375 7.15625 -31.421875 C 7.6875 -31.984375 7.953125 -32.8125 7.953125 -33.90625 L 7.953125 -35.703125 C 7.953125 -36.078125 7.816406 -36.382812 7.546875 -36.625 C 7.285156 -36.875 6.96875 -37 6.59375 -37 Z M 5.296875 -24.03125 L 5.296875 -3.265625 L 6.59375 -1.015625 L 7.953125 -3.265625 L 7.953125 -24.03125 C 7.953125 -24.40625 7.816406 -24.710938 7.546875 -24.953125 C 7.285156 -25.203125 6.96875 -25.328125 6.59375 -25.328125 C 6.257812 -25.328125 5.957031 -25.203125 5.6875 -24.953125 C 5.425781 -24.710938 5.296875 -24.40625 5.296875 -24.03125 Z M 5.296875 -24.03125 "/></g></g></g><g fill="#ffffff" fill-opacity="1"><g transform="translate(162.532289, 55.679249)"><g><path d="M 11.84375 -0.34375 C 11.84375 -0.113281 11.726562 0 11.5 0 L 0 0 C -0.113281 0 -0.195312 -0.0546875 -0.25 -0.171875 C -0.3125 -0.285156 -0.320312 -0.394531 -0.28125 -0.5 L 1.296875 -3.265625 L 1.296875 -36.890625 L -0.28125 -39.65625 C -0.320312 -39.769531 -0.3125 -39.878906 -0.25 -39.984375 C -0.195312 -40.097656 -0.113281 -40.15625 0 -40.15625 L 6.59375 -40.15625 C 6.707031 -40.15625 6.800781 -40.097656 6.875 -39.984375 C 6.957031 -39.878906 6.957031 -39.769531 6.875 -39.65625 L 5.25 -36.890625 L 5.25 -3.109375 L 7.890625 -3.109375 L 7.890625 -16.125 C 7.890625 -16.351562 8.003906 -16.46875 8.234375 -16.46875 L 11.5 -16.46875 C 11.726562 -16.46875 11.84375 -16.351562 11.84375 -16.125 Z M 11.84375 -0.34375 "/></g></g></g><g fill="#ffffff" fill-opacity="1"><g transform="translate(177.815059, 55.679249)"><g><path d="M 0.0625 -40.15625 L 6.59375 -40.15625 C 6.75 -40.15625 6.851562 -40.097656 6.90625 -39.984375 C 6.96875 -39.878906 6.957031 -39.769531 6.875 -39.65625 L 5.296875 -36.890625 L 5.296875 -3.265625 L 6.875 -0.5 C 6.957031 -0.394531 6.96875 -0.285156 6.90625 -0.171875 C 6.851562 -0.0546875 6.75 0 6.59375 0 L 0.0625 0 C -0.09375 0 -0.195312 -0.0546875 -0.25 -0.171875 C -0.3125 -0.285156 -0.300781 -0.394531 -0.21875 -0.5 L 1.359375 -3.265625 L 1.359375 -36.890625 L -0.21875 -39.65625 C -0.300781 -39.769531 -0.3125 -39.878906 -0.25 -39.984375 C -0.195312 -40.097656 -0.09375 -40.15625 0.0625 -40.15625 Z M 0.0625 -40.15625 "/></g></g></g><g fill="#ffffff" fill-opacity="1"><g transform="translate(71.62575, 66.891041)"><g><path d="M 3.96875 0 L 2.1875 -2.40625 L 1.546875 -1.875 L 1.546875 0 L 0.671875 0 L 0.671875 -7.21875 L 1.546875 -7.21875 L 1.546875 -2.71875 L 3.859375 -5.265625 L 4.890625 -5.265625 L 2.75 -3 L 5 0 Z M 3.96875 0 "/></g></g></g><g fill="#ffffff" fill-opacity="1"><g transform="translate(76.610504, 66.891041)"><g><path d="M 1.53125 -5.265625 L 1.53125 -1.921875 C 1.53125 -1.578125 1.5625 -1.304688 1.625 -1.109375 C 1.695312 -0.921875 1.804688 -0.785156 1.953125 -0.703125 C 2.109375 -0.617188 2.328125 -0.578125 2.609375 -0.578125 C 3.035156 -0.578125 3.367188 -0.722656 3.609375 -1.015625 C 3.859375 -1.304688 3.984375 -1.707031 3.984375 -2.21875 L 3.984375 -5.265625 L 4.859375 -5.265625 L 4.859375 -1.125 C 4.859375 -0.507812 4.863281 -0.132812 4.875 0 L 4.046875 0 C 4.046875 -0.0195312 4.046875 -0.0625 4.046875 -0.125 C 4.046875 -0.195312 4.039062 -0.28125 4.03125 -0.375 C 4.03125 -0.46875 4.023438 -0.644531 4.015625 -0.90625 L 4 -0.90625 C 3.800781 -0.539062 3.566406 -0.28125 3.296875 -0.125 C 3.035156 0.0195312 2.707031 0.09375 2.3125 0.09375 C 1.738281 0.09375 1.316406 -0.046875 1.046875 -0.328125 C 0.773438 -0.617188 0.640625 -1.09375 0.640625 -1.75 L 0.640625 -5.265625 Z M 1.53125 -5.265625 "/></g></g></g><g fill="#ffffff" fill-opacity="1"><g transform="translate(82.155075, 66.891041)"><g><path d="M 0.9375 2.0625 C 0.6875 2.0625 0.484375 2.046875 0.328125 2.015625 L 0.328125 1.359375 C 0.453125 1.378906 0.585938 1.390625 0.734375 1.390625 C 1.273438 1.390625 1.707031 0.988281 2.03125 0.1875 L 2.109375 -0.03125 L 0.03125 -5.265625 L 0.953125 -5.265625 L 2.0625 -2.359375 C 2.082031 -2.304688 2.101562 -2.25 2.125 -2.1875 C 2.144531 -2.125 2.21875 -1.910156 2.34375 -1.546875 C 2.46875 -1.191406 2.535156 -0.992188 2.546875 -0.953125 L 2.890625 -1.90625 L 4.046875 -5.265625 L 4.96875 -5.265625 L 2.9375 0 C 2.71875 0.5625 2.515625 0.976562 2.328125 1.25 C 2.140625 1.53125 1.929688 1.734375 1.703125 1.859375 C 1.472656 1.992188 1.21875 2.0625 0.9375 2.0625 Z M 0.9375 2.0625 "/></g></g></g><g fill="#ffffff" fill-opacity="1"><g transform="translate(87.139829, 66.891041)"><g><path d="M 1.53125 -5.265625 L 1.53125 -1.921875 C 1.53125 -1.578125 1.5625 -1.304688 1.625 -1.109375 C 1.695312 -0.921875 1.804688 -0.785156 1.953125 -0.703125 C 2.109375 -0.617188 2.328125 -0.578125 2.609375 -0.578125 C 3.035156 -0.578125 3.367188 -0.722656 3.609375 -1.015625 C 3.859375 -1.304688 3.984375 -1.707031 3.984375 -2.21875 L 3.984375 -5.265625 L 4.859375 -5.265625 L 4.859375 -1.125 C 4.859375 -0.507812 4.863281 -0.132812 4.875 0 L 4.046875 0 C 4.046875 -0.0195312 4.046875 -0.0625 4.046875 -0.125 C 4.046875 -0.195312 4.039062 -0.28125 4.03125 -0.375 C 4.03125 -0.46875 4.023438 -0.644531 4.015625 -0.90625 L 4 -0.90625 C 3.800781 -0.539062 3.566406 -0.28125 3.296875 -0.125 C 3.035156 0.0195312 2.707031 0.09375 2.3125 0.09375 C 1.738281 0.09375 1.316406 -0.046875 1.046875 -0.328125 C 0.773438 -0.617188 0.640625 -1.09375 0.640625 -1.75 L 0.640625 -5.265625 Z M 1.53125 -5.265625 "/></g></g></g><g fill="#ffffff" fill-opacity="1"><g transform="translate(92.6844, 66.891041)"><g><path d="M 3.734375 0 L 3.734375 -3.34375 C 3.734375 -3.851562 3.660156 -4.203125 3.515625 -4.390625 C 3.378906 -4.585938 3.132812 -4.6875 2.78125 -4.6875 C 2.40625 -4.6875 2.109375 -4.539062 1.890625 -4.25 C 1.671875 -3.96875 1.5625 -3.566406 1.5625 -3.046875 L 1.5625 0 L 0.6875 0 L 0.6875 -4.140625 C 0.6875 -4.753906 0.675781 -5.128906 0.65625 -5.265625 L 1.484375 -5.265625 C 1.492188 -5.253906 1.5 -5.210938 1.5 -5.140625 C 1.5 -5.066406 1.5 -4.984375 1.5 -4.890625 C 1.507812 -4.796875 1.519531 -4.617188 1.53125 -4.359375 L 1.546875 -4.359375 C 1.734375 -4.734375 1.945312 -4.992188 2.1875 -5.140625 C 2.4375 -5.285156 2.734375 -5.359375 3.078125 -5.359375 C 3.484375 -5.359375 3.800781 -5.28125 4.03125 -5.125 C 4.257812 -4.96875 4.421875 -4.710938 4.515625 -4.359375 L 4.53125 -4.359375 C 4.707031 -4.710938 4.925781 -4.96875 5.1875 -5.125 C 5.445312 -5.28125 5.757812 -5.359375 6.125 -5.359375 C 6.65625 -5.359375 7.039062 -5.210938 7.28125 -4.921875 C 7.519531 -4.640625 7.640625 -4.171875 7.640625 -3.515625 L 7.640625 0 L 6.78125 0 L 6.78125 -3.34375 C 6.78125 -3.851562 6.707031 -4.203125 6.5625 -4.390625 C 6.425781 -4.585938 6.175781 -4.6875 5.8125 -4.6875 C 5.4375 -4.6875 5.140625 -4.539062 4.921875 -4.25 C 4.710938 -3.96875 4.609375 -3.566406 4.609375 -3.046875 L 4.609375 0 Z M 3.734375 0 "/></g></g></g><g fill="#ffffff" fill-opacity="1"><g transform="translate(100.989078, 66.891041)"><g><path d="M 1.34375 -2.65625 C 1.34375 -1.957031 1.453125 -1.4375 1.671875 -1.09375 C 1.890625 -0.757812 2.222656 -0.59375 2.671875 -0.59375 C 2.984375 -0.59375 3.242188 -0.675781 3.453125 -0.84375 C 3.660156 -1.007812 3.785156 -1.269531 3.828125 -1.625 L 4.71875 -1.5625 C 4.65625 -1.0625 4.441406 -0.660156 4.078125 -0.359375 C 3.710938 -0.0546875 3.25 0.09375 2.6875 0.09375 C 1.957031 0.09375 1.394531 -0.132812 1 -0.59375 C 0.613281 -1.0625 0.421875 -1.742188 0.421875 -2.640625 C 0.421875 -3.523438 0.613281 -4.195312 1 -4.65625 C 1.394531 -5.125 1.957031 -5.359375 2.6875 -5.359375 C 3.21875 -5.359375 3.660156 -5.21875 4.015625 -4.9375 C 4.378906 -4.664062 4.601562 -4.285156 4.6875 -3.796875 L 3.796875 -3.71875 C 3.742188 -4.007812 3.625 -4.238281 3.4375 -4.40625 C 3.257812 -4.582031 3 -4.671875 2.65625 -4.671875 C 2.195312 -4.671875 1.863281 -4.515625 1.65625 -4.203125 C 1.445312 -3.898438 1.34375 -3.382812 1.34375 -2.65625 Z M 1.34375 -2.65625 "/></g></g></g><g fill="#ffffff" fill-opacity="1"><g transform="translate(105.973832, 66.891041)"><g><path d="M 1.53125 -5.265625 L 1.53125 -1.921875 C 1.53125 -1.578125 1.5625 -1.304688 1.625 -1.109375 C 1.695312 -0.921875 1.804688 -0.785156 1.953125 -0.703125 C 2.109375 -0.617188 2.328125 -0.578125 2.609375 -0.578125 C 3.035156 -0.578125 3.367188 -0.722656 3.609375 -1.015625 C 3.859375 -1.304688 3.984375 -1.707031 3.984375 -2.21875 L 3.984375 -5.265625 L 4.859375 -5.265625 L 4.859375 -1.125 C 4.859375 -0.507812 4.863281 -0.132812 4.875 0 L 4.046875 0 C 4.046875 -0.0195312 4.046875 -0.0625 4.046875 -0.125 C 4.046875 -0.195312 4.039062 -0.28125 4.03125 -0.375 C 4.03125 -0.46875 4.023438 -0.644531 4.015625 -0.90625 L 4 -0.90625 C 3.800781 -0.539062 3.566406 -0.28125 3.296875 -0.125 C 3.035156 0.0195312 2.707031 0.09375 2.3125 0.09375 C 1.738281 0.09375 1.316406 -0.046875 1.046875 -0.328125 C 0.773438 -0.617188 0.640625 -1.09375 0.640625 -1.75 L 0.640625 -5.265625 Z M 1.53125 -5.265625 "/></g></g></g><g fill="#ffffff" fill-opacity="1"><g transform="translate(111.518403, 66.891041)"><g><path d="M 0.671875 0 L 0.671875 -7.21875 L 1.546875 -7.21875 L 1.546875 0 Z M 0.671875 0 "/></g></g></g><g fill="#ffffff" fill-opacity="1"><g transform="translate(113.733314, 66.891041)"><g><path d="M 1.53125 -5.265625 L 1.53125 -1.921875 C 1.53125 -1.578125 1.5625 -1.304688 1.625 -1.109375 C 1.695312 -0.921875 1.804688 -0.785156 1.953125 -0.703125 C 2.109375 -0.617188 2.328125 -0.578125 2.609375 -0.578125 C 3.035156 -0.578125 3.367188 -0.722656 3.609375 -1.015625 C 3.859375 -1.304688 3.984375 -1.707031 3.984375 -2.21875 L 3.984375 -5.265625 L 4.859375 -5.265625 L 4.859375 -1.125 C 4.859375 -0.507812 4.863281 -0.132812 4.875 0 L 4.046875 0 C 4.046875 -0.0195312 4.046875 -0.0625 4.046875 -0.125 C 4.046875 -0.195312 4.039062 -0.28125 4.03125 -0.375 C 4.03125 -0.46875 4.023438 -0.644531 4.015625 -0.90625 L 4 -0.90625 C 3.800781 -0.539062 3.566406 -0.28125 3.296875 -0.125 C 3.035156 0.0195312 2.707031 0.09375 2.3125 0.09375 C 1.738281 0.09375 1.316406 -0.046875 1.046875 -0.328125 C 0.773438 -0.617188 0.640625 -1.09375 0.640625 -1.75 L 0.640625 -5.265625 Z M 1.53125 -5.265625 "/></g></g></g><g fill="#ffffff" fill-opacity="1"><g transform="translate(119.277885, 66.891041)"><g><path d="M 3.96875 0 L 2.1875 -2.40625 L 1.546875 -1.875 L 1.546875 0 L 0.671875 0 L 0.671875 -7.21875 L 1.546875 -7.21875 L 1.546875 -2.71875 L 3.859375 -5.265625 L 4.890625 -5.265625 L 2.75 -3 L 5 0 Z M 3.96875 0 "/></g></g></g></svg>