<svg xmlns="http://www.w3.org/2000/svg" xmlns:xlink="http://www.w3.org/1999/xlink" width="250" zoomAndPan="magnify" viewBox="0 0 187.5 112.499997" height="150" preserveAspectRatio="xMidYMid meet" version="1.0"><defs><g/><clipPath id="d7a65dd159"><path d="M 56.296875 47.867188 L 75.777344 47.867188 L 75.777344 67.347656 L 56.296875 67.347656 Z M 56.296875 47.867188 " clip-rule="nonzero"/></clipPath><clipPath id="b68c527d58"><path d="M 66.035156 47.867188 C 60.65625 47.867188 56.296875 52.230469 56.296875 57.609375 C 56.296875 62.988281 60.65625 67.347656 66.035156 67.347656 C 71.414062 67.347656 75.777344 62.988281 75.777344 57.609375 C 75.777344 52.230469 71.414062 47.867188 66.035156 47.867188 Z M 66.035156 47.867188 " clip-rule="nonzero"/></clipPath><clipPath id="0da0f9f86f"><path d="M 58.09375 48.808594 L 72.65625 48.808594 L 72.65625 63.371094 L 58.09375 63.371094 Z M 58.09375 48.808594 " clip-rule="nonzero"/></clipPath></defs><g fill="#ffffff" fill-opacity="1"><g transform="translate(12.796504, 69.242764)"><g><path d="M 39.28125 -22.515625 L 39.28125 -13.796875 C 38.238281 -9.015625 35.960938 -5.394531 32.453125 -2.9375 C 28.941406 -0.488281 25.03125 0.734375 20.71875 0.734375 C 15.289062 0.734375 10.664062 -1.296875 6.84375 -5.359375 C 3.03125 -9.421875 1.125 -14.328125 1.125 -20.078125 C 1.125 -25.921875 2.988281 -30.859375 6.71875 -34.890625 C 10.457031 -38.921875 15.125 -40.9375 20.71875 -40.9375 C 27.238281 -40.9375 32.398438 -38.644531 36.203125 -34.0625 L 30.21875 -27.484375 C 28.070312 -30.929688 25.082031 -32.65625 21.25 -32.65625 C 18.425781 -32.65625 16.015625 -31.425781 14.015625 -28.96875 C 12.015625 -26.519531 11.015625 -23.554688 11.015625 -20.078125 C 11.015625 -16.671875 12.015625 -13.753906 14.015625 -11.328125 C 16.015625 -8.910156 18.425781 -7.703125 21.25 -7.703125 C 23.582031 -7.703125 25.617188 -8.40625 27.359375 -9.8125 C 29.097656 -11.226562 29.96875 -13.109375 29.96875 -15.453125 L 20.71875 -15.453125 L 20.71875 -22.515625 Z M 39.28125 -22.515625 "/></g></g></g><g fill="#ffffff" fill-opacity="1"><g transform="translate(49.393817, 69.242764)"><g><path d="M 5.28125 -2.96875 C 2.507812 -5.4375 1.125 -8.601562 1.125 -12.46875 C 1.125 -16.34375 2.566406 -19.519531 5.453125 -22 C 8.347656 -24.488281 11.925781 -25.734375 16.1875 -25.734375 C 20.375 -25.734375 23.90625 -24.484375 26.78125 -21.984375 C 29.65625 -19.484375 31.09375 -16.3125 31.09375 -12.46875 C 31.09375 -8.632812 29.6875 -5.472656 26.875 -2.984375 C 24.0625 -0.503906 20.5 0.734375 16.1875 0.734375 C 11.695312 0.734375 8.0625 -0.5 5.28125 -2.96875 Z M 11.953125 -16.71875 C 10.835938 -15.613281 10.28125 -14.195312 10.28125 -12.46875 C 10.28125 -10.75 10.816406 -9.34375 11.890625 -8.25 C 12.960938 -7.164062 14.375 -6.625 16.125 -6.625 C 17.820312 -6.625 19.210938 -7.175781 20.296875 -8.28125 C 21.390625 -9.382812 21.9375 -10.78125 21.9375 -12.46875 C 21.9375 -14.195312 21.375 -15.613281 20.25 -16.71875 C 19.125 -17.820312 17.75 -18.375 16.125 -18.375 C 14.46875 -18.375 13.078125 -17.820312 11.953125 -16.71875 Z M 11.953125 -16.71875 "/></g></g></g><g fill="#ffffff" fill-opacity="1"><g transform="translate(77.804151, 69.242764)"><g><path d="M 2.921875 0 L 2.921875 -41.90625 L 11.546875 -41.90625 L 11.546875 0 Z M 2.921875 0 "/></g></g></g><g fill="#ffffff" fill-opacity="1"><g transform="translate(88.476029, 69.242764)"><g><path d="M 4.625 -3.09375 C 2.289062 -5.644531 1.125 -8.769531 1.125 -12.46875 C 1.125 -16.175781 2.289062 -19.3125 4.625 -21.875 C 6.96875 -24.445312 9.941406 -25.734375 13.546875 -25.734375 C 16.859375 -25.734375 19.585938 -24.691406 21.734375 -22.609375 L 21.734375 -41.90625 L 30.359375 -41.90625 L 30.359375 0 L 21.828125 0 L 21.828125 -2.828125 L 21.734375 -2.828125 C 19.585938 -0.453125 16.859375 0.734375 13.546875 0.734375 C 9.941406 0.734375 6.96875 -0.539062 4.625 -3.09375 Z M 11.953125 -16.71875 C 10.835938 -15.613281 10.28125 -14.195312 10.28125 -12.46875 C 10.28125 -10.75 10.816406 -9.34375 11.890625 -8.25 C 12.960938 -7.164062 14.375 -6.625 16.125 -6.625 C 17.820312 -6.625 19.210938 -7.175781 20.296875 -8.28125 C 21.390625 -9.382812 21.9375 -10.78125 21.9375 -12.46875 C 21.9375 -14.195312 21.375 -15.613281 20.25 -16.71875 C 19.125 -17.820312 17.75 -18.375 16.125 -18.375 C 14.46875 -18.375 13.078125 -17.820312 11.953125 -16.71875 Z M 11.953125 -16.71875 "/></g></g></g><g fill="#ffffff" fill-opacity="1"><g transform="translate(117.95847, 69.242764)"><g><path d="M 3.75 -38.9375 C 4.757812 -39.945312 5.960938 -40.453125 7.359375 -40.453125 C 8.753906 -40.453125 9.953125 -39.945312 10.953125 -38.9375 C 11.960938 -37.925781 12.46875 -36.722656 12.46875 -35.328125 C 12.46875 -33.929688 11.960938 -32.726562 10.953125 -31.71875 C 9.953125 -30.71875 8.753906 -30.21875 7.359375 -30.21875 C 5.960938 -30.21875 4.757812 -30.71875 3.75 -31.71875 C 2.738281 -32.726562 2.234375 -33.929688 2.234375 -35.328125 C 2.234375 -36.722656 2.738281 -37.925781 3.75 -38.9375 Z M 2.921875 -25 L 2.921875 0 L 11.546875 0 L 11.546875 -25 Z M 2.921875 -25 "/></g></g></g><g fill="#ffffff" fill-opacity="1"><g transform="translate(128.874016, 69.242764)"><g><path d="M 4.390625 -25 L 4.390625 -30.3125 C 4.421875 -34.050781 5.296875 -37.039062 7.015625 -39.28125 C 8.734375 -41.519531 11.125 -42.640625 14.1875 -42.640625 C 15.476562 -42.640625 16.71875 -42.453125 17.90625 -42.078125 C 19.09375 -41.703125 19.945312 -41.320312 20.46875 -40.9375 L 21.296875 -40.40625 L 18.28125 -34.3125 C 17.5 -34.757812 16.632812 -34.984375 15.6875 -34.984375 C 14.613281 -34.984375 13.898438 -34.617188 13.546875 -33.890625 C 13.191406 -33.160156 13.015625 -31.882812 13.015625 -30.0625 L 13.015625 -25 L 18.765625 -25 L 18.765625 -18.421875 L 13.015625 -18.421875 L 13.015625 0 L 4.390625 0 L 4.390625 -18.421875 L 0.78125 -18.421875 L 0.78125 -25 Z M 4.390625 -25 "/></g></g></g><g fill="#ffffff" fill-opacity="1"><g transform="translate(143.346979, 69.242764)"><g><path d="M 21.875 -25 L 31.828125 -25 L 12.1875 12.671875 L 2.234375 12.671875 L 10.875 -3.90625 L -0.96875 -25 L 8.96875 -25 L 15.9375 -12.1875 Z M 21.875 -25 "/></g></g></g><g clip-path="url(#d7a65dd159)"><g clip-path="url(#b68c527d58)"><path fill="#ffffff" d="M 56.296875 47.867188 L 75.777344 47.867188 L 75.777344 67.347656 L 56.296875 67.347656 Z M 56.296875 47.867188 " fill-opacity="1" fill-rule="nonzero"/></g></g><g clip-path="url(#0da0f9f86f)"><path fill="#0271f7" d="M 65.285156 48.808594 C 64.585938 54.730469 64.015625 55.300781 58.09375 56 C 58.105469 56 58.117188 56.003906 58.128906 56.003906 C 64.019531 56.703125 64.585938 57.28125 65.285156 63.191406 C 65.984375 57.269531 66.554688 56.699219 72.476562 56 C 66.554688 55.300781 65.984375 54.730469 65.285156 48.808594 Z M 65.285156 48.808594 " fill-opacity="1" fill-rule="nonzero"/></g></svg>