<svg xmlns="http://www.w3.org/2000/svg" xmlns:xlink="http://www.w3.org/1999/xlink" width="500" zoomAndPan="magnify" viewBox="0 0 375 374.999991" height="500" preserveAspectRatio="xMidYMid meet" version="1.0"><defs><g/></defs><path fill="#ffffff" d="M 341.738281 190.351562 C 322.585938 171.300781 297.757812 161.867188 273.023438 162.175781 C 276.671875 151.636719 282.753906 141.90625 290.863281 133.796875 C 306.472656 118.191406 327.449219 110.183594 349.441406 111.703125 C 349.542969 113.421875 349.644531 115.148438 349.644531 116.976562 C 349.644531 132.171875 344.882812 147.175781 335.859375 159.949219 C 341.640625 163.488281 347.007812 167.652344 352.074219 172.3125 C 368.699219 149.101562 373.765625 120.316406 367.078125 94.074219 C 335.964844 86.160156 301.300781 94.679688 276.46875 119.40625 C 263.5 132.484375 255.1875 148.390625 251.132812 165.015625 C 250.121094 169.070312 249.40625 173.21875 249.003906 177.375 L 248.800781 177.375 C 220.527344 177.375 197.621094 154.46875 197.621094 126.199219 C 218.699219 124.066406 239.273438 114.746094 255.59375 98.527344 C 280.320312 73.699219 288.835938 39.03125 280.929688 7.917969 C 249.8125 0.0117188 215.15625 8.527344 190.324219 33.261719 C 171.269531 52.414062 161.84375 77.242188 162.152344 101.972656 C 151.609375 98.324219 141.875 92.246094 133.769531 84.132812 C 118.164062 68.527344 110.15625 47.546875 111.675781 25.554688 C 113.398438 25.453125 115.121094 25.355469 116.945312 25.355469 C 132.148438 25.355469 147.144531 30.117188 159.921875 39.140625 C 163.464844 33.355469 167.621094 27.988281 172.285156 22.921875 C 149.074219 6.296875 120.289062 1.230469 94.042969 7.917969 C 86.132812 39.03125 94.652344 73.699219 119.378906 98.527344 C 132.453125 111.5 148.363281 119.8125 164.988281 123.863281 C 169.039062 124.875 173.195312 125.589844 177.351562 125.996094 L 177.351562 126.199219 C 177.351562 154.46875 154.441406 177.375 126.171875 177.375 C 124.039062 156.296875 114.71875 135.722656 98.503906 119.410156 C 73.671875 94.679688 39.007812 86.160156 7.894531 94.070312 C -0.0117188 125.183594 8.5 159.84375 33.234375 184.671875 C 52.386719 203.726562 77.214844 213.152344 101.949219 212.847656 C 98.300781 223.386719 92.21875 233.121094 84.109375 241.226562 C 68.5 256.835938 47.519531 264.839844 25.53125 263.320312 C 25.429688 261.601562 25.328125 259.875 25.328125 258.050781 C 25.328125 242.851562 30.089844 227.847656 39.109375 215.078125 C 33.332031 211.535156 27.964844 207.375 22.898438 202.710938 C 11.035156 219.273438 5.058594 238.675781 5.035156 257.964844 L 5.035156 258.515625 C 5.070312 266.074219 6.023438 273.613281 7.894531 280.953125 C 39.007812 288.863281 73.671875 280.34375 98.503906 255.617188 C 111.476562 242.542969 119.785156 226.632812 123.839844 210.007812 C 124.851562 205.953125 125.5625 201.804688 125.96875 197.648438 L 126.171875 197.648438 C 154.445312 197.648438 177.351562 220.554688 177.351562 248.824219 C 156.273438 250.960938 135.699219 260.28125 119.378906 276.496094 C 94.652344 301.328125 86.136719 335.992188 94.042969 367.105469 C 125.160156 375.011719 159.816406 366.496094 184.648438 341.765625 C 203.699219 322.613281 213.128906 297.785156 212.820312 273.050781 C 223.363281 276.699219 233.09375 282.777344 241.203125 290.890625 C 256.808594 306.496094 264.816406 327.476562 263.296875 349.46875 C 261.574219 349.570312 259.847656 349.671875 258.023438 349.671875 C 242.824219 349.671875 227.824219 344.90625 215.050781 335.886719 C 211.507812 341.664062 207.347656 347.035156 202.6875 352.105469 C 225.898438 368.726562 254.683594 373.796875 280.929688 367.105469 C 288.835938 335.992188 280.320312 301.328125 255.59375 276.496094 C 242.519531 263.523438 226.609375 255.210938 209.984375 251.164062 C 205.929688 250.148438 201.777344 249.433594 197.621094 249.027344 L 197.621094 248.824219 C 197.621094 220.554688 220.527344 197.648438 248.800781 197.648438 C 250.929688 218.726562 260.253906 239.296875 276.46875 255.617188 C 301.300781 280.34375 335.964844 288.863281 367.082031 280.953125 C 374.984375 249.839844 366.46875 215.179688 341.738281 190.351562 M 106.207031 192.375 C 84.816406 193.898438 63.230469 185.992188 47.625 170.285156 C 32.015625 154.675781 24.007812 133.699219 25.53125 111.703125 C 27.25 111.597656 28.976562 111.5 30.699219 111.5 C 50.359375 111.5 69.820312 119.40625 84.109375 133.796875 C 99.71875 149.398438 107.722656 170.382812 106.207031 192.375 Z M 204.714844 47.648438 C 220.320312 32.042969 241.300781 24.035156 263.296875 25.554688 C 263.398438 27.277344 263.496094 29 263.496094 30.726562 C 263.5 50.386719 255.59375 69.847656 241.203125 84.132812 C 225.597656 99.742188 204.613281 107.75 182.621094 106.230469 C 182.519531 104.507812 182.417969 102.785156 182.417969 101.058594 C 182.417969 81.402344 190.324219 61.941406 204.714844 47.648438 Z M 170.257812 327.375 C 154.652344 342.980469 133.671875 350.988281 111.675781 349.46875 C 111.574219 347.746094 111.476562 346.023438 111.476562 344.300781 C 111.476562 324.640625 119.378906 305.179688 133.769531 290.890625 C 149.375 275.28125 170.355469 267.273438 192.351562 268.792969 C 192.453125 270.515625 192.550781 272.238281 192.550781 273.964844 C 192.550781 293.621094 184.648438 313.082031 170.257812 327.375 Z M 187.484375 207.78125 C 176.335938 207.78125 167.21875 198.660156 167.21875 187.511719 C 167.21875 176.363281 176.335938 167.246094 187.484375 167.246094 C 198.632812 167.242188 207.753906 176.363281 207.753906 187.511719 C 207.753906 198.660156 198.632812 207.78125 187.484375 207.78125 Z M 349.441406 263.320312 C 328.058594 264.839844 306.472656 256.933594 290.863281 241.226562 C 275.253906 225.621094 267.25 204.644531 268.765625 182.648438 C 270.492188 182.542969 272.214844 182.445312 273.9375 182.445312 C 293.597656 182.445312 313.054688 190.351562 327.347656 204.738281 C 342.953125 220.347656 350.964844 241.324219 349.441406 263.320312 Z M 349.441406 263.320312 " fill-opacity="1" fill-rule="evenodd"/><g fill="#ffffff" fill-opacity="1"><g transform="translate(145.111445, 190.161192)"><g><path d="M 0.015625 0 L 0.015625 -0.203125 L 0.265625 -0.203125 L 0.984375 -2.078125 L 1.3125 -2.078125 L 2.046875 -0.203125 L 2.28125 -0.203125 L 2.28125 0 L 1.390625 0 L 1.390625 -0.203125 L 1.703125 -0.203125 L 1.515625 -0.703125 L 0.703125 -0.703125 L 0.53125 -0.203125 L 0.875 -0.203125 L 0.875 0 Z M 0.78125 -0.875 L 1.4375 -0.875 L 1.09375 -1.8125 Z M 0.78125 -0.875 "/></g></g><g transform="translate(147.40485, 190.161192)"><g><path d="M 0.046875 0 L 0.046875 -0.15625 L 0.359375 -0.15625 L 0.359375 -1.90625 L 0.046875 -1.90625 L 0.046875 -2.078125 L 0.65625 -2.078125 L 0.65625 -0.15625 L 0.953125 -0.15625 L 0.953125 0 Z M 0.046875 0 "/></g></g><g transform="translate(148.381825, 190.161192)"><g><path d="M 0.703125 0.03125 C 0.578125 0.03125 0.472656 0 0.390625 -0.0625 C 0.347656 -0.101562 0.3125 -0.148438 0.28125 -0.203125 C 0.257812 -0.265625 0.25 -0.332031 0.25 -0.40625 L 0.25 -1.328125 L -0.03125 -1.328125 L -0.03125 -1.390625 C 0.0390625 -1.410156 0.101562 -1.445312 0.15625 -1.5 C 0.21875 -1.550781 0.265625 -1.613281 0.296875 -1.6875 C 0.335938 -1.75 0.367188 -1.8125 0.390625 -1.875 C 0.429688 -1.945312 0.457031 -1.992188 0.46875 -2.015625 C 0.488281 -2.054688 0.503906 -2.078125 0.515625 -2.078125 C 0.523438 -2.078125 0.53125 -2.070312 0.53125 -2.0625 C 0.539062 -2.050781 0.546875 -2.039062 0.546875 -2.03125 L 0.546875 -1.484375 L 1.09375 -1.484375 L 1.09375 -1.328125 L 0.546875 -1.328125 L 0.546875 -0.40625 C 0.546875 -0.320312 0.5625 -0.257812 0.59375 -0.21875 C 0.632812 -0.175781 0.6875 -0.15625 0.75 -0.15625 C 0.832031 -0.15625 0.890625 -0.179688 0.921875 -0.234375 C 0.953125 -0.285156 0.96875 -0.367188 0.96875 -0.484375 L 0.96875 -0.6875 L 1.140625 -0.6875 L 1.140625 -0.515625 C 1.140625 -0.390625 1.125 -0.285156 1.09375 -0.203125 C 1.070312 -0.117188 1.023438 -0.0546875 0.953125 -0.015625 C 0.890625 0.015625 0.804688 0.03125 0.703125 0.03125 Z M 0.703125 0.03125 "/></g></g><g transform="translate(149.612702, 190.161192)"><g/></g><g transform="translate(150.275058, 190.161192)"><g><path d="M 0.046875 -0.203125 L 0.390625 -0.203125 L 0.390625 -1.875 L 0.046875 -1.875 L 0.046875 -2.078125 L 0.953125 -2.078125 C 1.078125 -2.078125 1.195312 -2.066406 1.3125 -2.046875 C 1.4375 -2.015625 1.546875 -1.960938 1.640625 -1.890625 C 1.691406 -1.859375 1.726562 -1.8125 1.75 -1.75 C 1.769531 -1.695312 1.78125 -1.632812 1.78125 -1.5625 C 1.78125 -1.445312 1.75 -1.351562 1.6875 -1.28125 C 1.625 -1.207031 1.53125 -1.148438 1.40625 -1.109375 C 1.5625 -1.078125 1.679688 -1.015625 1.765625 -0.921875 C 1.847656 -0.828125 1.890625 -0.707031 1.890625 -0.5625 C 1.890625 -0.5 1.878906 -0.4375 1.859375 -0.375 C 1.835938 -0.3125 1.8125 -0.257812 1.78125 -0.21875 C 1.75 -0.1875 1.703125 -0.15625 1.640625 -0.125 C 1.585938 -0.09375 1.535156 -0.0664062 1.484375 -0.046875 C 1.429688 -0.0351562 1.375 -0.0234375 1.3125 -0.015625 C 1.25 -0.00390625 1.1875 0 1.125 0 C 1.0625 0 1.007812 0 0.96875 0 L 0.046875 0 Z M 1.015625 -1.1875 C 1.128906 -1.1875 1.234375 -1.210938 1.328125 -1.265625 C 1.378906 -1.285156 1.414062 -1.316406 1.4375 -1.359375 C 1.46875 -1.410156 1.484375 -1.460938 1.484375 -1.515625 C 1.484375 -1.609375 1.460938 -1.679688 1.421875 -1.734375 C 1.390625 -1.773438 1.335938 -1.8125 1.265625 -1.84375 C 1.203125 -1.851562 1.109375 -1.863281 0.984375 -1.875 C 0.921875 -1.875 0.863281 -1.875 0.8125 -1.875 L 0.703125 -1.875 L 0.703125 -1.1875 Z M 0.875 -0.203125 C 1 -0.203125 1.097656 -0.203125 1.171875 -0.203125 C 1.222656 -0.210938 1.265625 -0.21875 1.296875 -0.21875 C 1.328125 -0.226562 1.359375 -0.242188 1.390625 -0.265625 C 1.421875 -0.273438 1.445312 -0.285156 1.46875 -0.296875 C 1.488281 -0.316406 1.507812 -0.34375 1.53125 -0.375 C 1.5625 -0.425781 1.578125 -0.492188 1.578125 -0.578125 C 1.578125 -0.648438 1.5625 -0.710938 1.53125 -0.765625 C 1.5 -0.828125 1.453125 -0.875 1.390625 -0.90625 C 1.335938 -0.9375 1.273438 -0.957031 1.203125 -0.96875 C 1.140625 -0.988281 1.078125 -1 1.015625 -1 L 0.703125 -1 L 0.703125 -0.203125 Z M 0.875 -0.203125 "/></g></g><g transform="translate(152.269024, 190.161192)"><g><path d="M 0.484375 0.03125 C 0.410156 0.03125 0.34375 0.0195312 0.28125 0 C 0.226562 -0.03125 0.1875 -0.0703125 0.15625 -0.125 C 0.125 -0.175781 0.109375 -0.234375 0.109375 -0.296875 C 0.109375 -0.359375 0.117188 -0.410156 0.140625 -0.453125 C 0.171875 -0.492188 0.207031 -0.53125 0.25 -0.5625 C 0.289062 -0.59375 0.335938 -0.625 0.390625 -0.65625 C 0.441406 -0.6875 0.492188 -0.707031 0.546875 -0.71875 C 0.648438 -0.757812 0.75 -0.804688 0.84375 -0.859375 C 0.882812 -0.890625 0.914062 -0.921875 0.9375 -0.953125 C 0.957031 -0.984375 0.96875 -1.019531 0.96875 -1.0625 C 0.96875 -1.164062 0.941406 -1.242188 0.890625 -1.296875 C 0.847656 -1.347656 0.78125 -1.375 0.6875 -1.375 C 0.613281 -1.375 0.546875 -1.363281 0.484375 -1.34375 C 0.429688 -1.320312 0.390625 -1.296875 0.359375 -1.265625 C 0.410156 -1.265625 0.453125 -1.25 0.484375 -1.21875 C 0.523438 -1.1875 0.546875 -1.144531 0.546875 -1.09375 C 0.546875 -1.0625 0.535156 -1.03125 0.515625 -1 C 0.503906 -0.96875 0.484375 -0.941406 0.453125 -0.921875 C 0.421875 -0.910156 0.390625 -0.90625 0.359375 -0.90625 C 0.296875 -0.90625 0.242188 -0.921875 0.203125 -0.953125 C 0.171875 -0.992188 0.15625 -1.050781 0.15625 -1.125 C 0.15625 -1.164062 0.164062 -1.207031 0.1875 -1.25 C 0.21875 -1.289062 0.253906 -1.332031 0.296875 -1.375 C 0.347656 -1.414062 0.410156 -1.445312 0.484375 -1.46875 C 0.566406 -1.5 0.648438 -1.515625 0.734375 -1.515625 C 0.816406 -1.515625 0.890625 -1.503906 0.953125 -1.484375 C 1.015625 -1.472656 1.066406 -1.453125 1.109375 -1.421875 C 1.160156 -1.378906 1.195312 -1.320312 1.21875 -1.25 C 1.25 -1.1875 1.265625 -1.113281 1.265625 -1.03125 L 1.265625 -0.390625 C 1.265625 -0.347656 1.269531 -0.3125 1.28125 -0.28125 C 1.289062 -0.25 1.3125 -0.222656 1.34375 -0.203125 C 1.363281 -0.171875 1.394531 -0.15625 1.4375 -0.15625 C 1.550781 -0.15625 1.609375 -0.238281 1.609375 -0.40625 L 1.609375 -0.609375 L 1.765625 -0.609375 L 1.765625 -0.4375 C 1.765625 -0.34375 1.753906 -0.265625 1.734375 -0.203125 C 1.710938 -0.140625 1.6875 -0.0859375 1.65625 -0.046875 C 1.613281 -0.015625 1.570312 0.00390625 1.53125 0.015625 C 1.488281 0.0234375 1.4375 0.03125 1.375 0.03125 C 1.3125 0.03125 1.253906 0.0195312 1.203125 0 C 1.148438 -0.0195312 1.101562 -0.0546875 1.0625 -0.109375 C 1.03125 -0.171875 1.007812 -0.238281 1 -0.3125 C 0.96875 -0.238281 0.925781 -0.175781 0.875 -0.125 C 0.820312 -0.0703125 0.757812 -0.03125 0.6875 0 C 0.625 0.0195312 0.554688 0.03125 0.484375 0.03125 Z M 0.5625 -0.15625 C 0.625 -0.15625 0.6875 -0.171875 0.75 -0.203125 C 0.8125 -0.242188 0.863281 -0.296875 0.90625 -0.359375 C 0.945312 -0.410156 0.96875 -0.460938 0.96875 -0.515625 L 0.96875 -0.8125 C 0.914062 -0.757812 0.851562 -0.707031 0.78125 -0.65625 C 0.707031 -0.613281 0.640625 -0.578125 0.578125 -0.546875 C 0.523438 -0.523438 0.484375 -0.492188 0.453125 -0.453125 C 0.421875 -0.410156 0.40625 -0.363281 0.40625 -0.3125 C 0.40625 -0.269531 0.414062 -0.234375 0.4375 -0.203125 C 0.46875 -0.171875 0.507812 -0.15625 0.5625 -0.15625 Z M 0.5625 -0.15625 "/></g></g><g transform="translate(154.017366, 190.161192)"><g><path d="M 1.1875 -0.71875 C 1.226562 -0.675781 1.257812 -0.628906 1.28125 -0.578125 C 1.3125 -0.523438 1.328125 -0.46875 1.328125 -0.40625 C 1.328125 -0.34375 1.316406 -0.285156 1.296875 -0.234375 C 1.273438 -0.179688 1.242188 -0.132812 1.203125 -0.09375 C 1.160156 -0.0625 1.113281 -0.0351562 1.0625 -0.015625 C 1.007812 0.00390625 0.953125 0.0195312 0.890625 0.03125 L 0.8125 0.03125 L 0.8125 0.390625 C 0.8125 0.421875 0.800781 0.453125 0.78125 0.484375 C 0.757812 0.515625 0.726562 0.539062 0.6875 0.5625 C 0.65625 0.570312 0.617188 0.582031 0.578125 0.59375 C 0.546875 0.601562 0.515625 0.613281 0.484375 0.625 L 0.453125 0.625 L 0.40625 0.53125 C 0.457031 0.519531 0.503906 0.507812 0.546875 0.5 C 0.585938 0.476562 0.609375 0.457031 0.609375 0.4375 C 0.609375 0.414062 0.585938 0.382812 0.546875 0.34375 C 0.492188 0.300781 0.46875 0.269531 0.46875 0.25 C 0.46875 0.207031 0.484375 0.164062 0.515625 0.125 C 0.554688 0.0820312 0.601562 0.0507812 0.65625 0.03125 C 0.53125 0.03125 0.414062 0.00390625 0.3125 -0.046875 C 0.25 -0.078125 0.195312 -0.113281 0.15625 -0.15625 C 0.125 -0.207031 0.109375 -0.265625 0.109375 -0.328125 C 0.109375 -0.367188 0.113281 -0.40625 0.125 -0.4375 C 0.144531 -0.46875 0.171875 -0.492188 0.203125 -0.515625 C 0.234375 -0.535156 0.265625 -0.546875 0.296875 -0.546875 C 0.347656 -0.546875 0.390625 -0.53125 0.421875 -0.5 C 0.460938 -0.46875 0.484375 -0.425781 0.484375 -0.375 C 0.484375 -0.34375 0.476562 -0.3125 0.46875 -0.28125 C 0.457031 -0.257812 0.441406 -0.242188 0.421875 -0.234375 C 0.398438 -0.222656 0.375 -0.21875 0.34375 -0.21875 C 0.382812 -0.1875 0.429688 -0.160156 0.484375 -0.140625 C 0.546875 -0.128906 0.609375 -0.125 0.671875 -0.125 C 0.742188 -0.125 0.804688 -0.128906 0.859375 -0.140625 C 0.921875 -0.160156 0.96875 -0.1875 1 -0.21875 C 1.039062 -0.257812 1.0625 -0.304688 1.0625 -0.359375 C 1.0625 -0.398438 1.046875 -0.4375 1.015625 -0.46875 C 0.992188 -0.507812 0.960938 -0.539062 0.921875 -0.5625 C 0.816406 -0.601562 0.707031 -0.640625 0.59375 -0.671875 C 0.53125 -0.691406 0.46875 -0.710938 0.40625 -0.734375 C 0.351562 -0.753906 0.304688 -0.78125 0.265625 -0.8125 C 0.222656 -0.84375 0.1875 -0.882812 0.15625 -0.9375 C 0.132812 -0.988281 0.125 -1.039062 0.125 -1.09375 C 0.125 -1.15625 0.132812 -1.210938 0.15625 -1.265625 C 0.1875 -1.316406 0.222656 -1.359375 0.265625 -1.390625 C 0.304688 -1.421875 0.351562 -1.445312 0.40625 -1.46875 C 0.457031 -1.488281 0.507812 -1.503906 0.5625 -1.515625 C 0.613281 -1.515625 0.660156 -1.515625 0.703125 -1.515625 C 0.765625 -1.515625 0.828125 -1.507812 0.890625 -1.5 C 0.960938 -1.488281 1.03125 -1.46875 1.09375 -1.4375 C 1.15625 -1.40625 1.203125 -1.367188 1.234375 -1.328125 C 1.273438 -1.285156 1.296875 -1.238281 1.296875 -1.1875 C 1.296875 -1.144531 1.285156 -1.109375 1.265625 -1.078125 C 1.242188 -1.046875 1.21875 -1.019531 1.1875 -1 C 1.164062 -0.976562 1.140625 -0.96875 1.109375 -0.96875 C 1.054688 -0.96875 1.007812 -0.984375 0.96875 -1.015625 C 0.9375 -1.054688 0.921875 -1.101562 0.921875 -1.15625 C 0.921875 -1.175781 0.925781 -1.195312 0.9375 -1.21875 C 0.945312 -1.25 0.960938 -1.269531 0.984375 -1.28125 L 1.03125 -1.3125 C 0.9375 -1.351562 0.832031 -1.375 0.71875 -1.375 C 0.65625 -1.375 0.597656 -1.363281 0.546875 -1.34375 C 0.492188 -1.320312 0.453125 -1.289062 0.421875 -1.25 C 0.390625 -1.21875 0.375 -1.179688 0.375 -1.140625 C 0.375 -1.097656 0.382812 -1.0625 0.40625 -1.03125 C 0.4375 -1.007812 0.476562 -0.988281 0.53125 -0.96875 C 0.632812 -0.925781 0.742188 -0.894531 0.859375 -0.875 C 0.910156 -0.851562 0.960938 -0.828125 1.015625 -0.796875 C 1.078125 -0.773438 1.132812 -0.75 1.1875 -0.71875 Z M 1.1875 -0.71875 "/></g></g><g transform="translate(155.45247, 190.161192)"><g><path d="M 0.046875 0 L 0.046875 -0.15625 L 0.359375 -0.15625 L 0.359375 -1.90625 L 0.046875 -1.90625 L 0.046875 -2.078125 L 0.65625 -2.078125 L 0.65625 -0.15625 L 0.953125 -0.15625 L 0.953125 0 Z M 0.046875 0 "/></g></g><g transform="translate(156.429444, 190.161192)"><g><path d="M 0.078125 0 L 0.078125 -0.15625 L 0.34375 -0.15625 L 0.34375 -1.328125 L 0.078125 -1.328125 L 0.078125 -1.484375 L 0.640625 -1.484375 L 0.640625 -0.15625 L 0.90625 -0.15625 L 0.90625 0 Z M 0.078125 0 "/></g></g><g transform="translate(157.355362, 190.161192)"><g><path d="M 1.5625 0.03125 C 1.46875 0.03125 1.382812 0.00390625 1.3125 -0.046875 C 1.238281 -0.0976562 1.171875 -0.175781 1.109375 -0.28125 L 0.84375 -0.75 L 0.609375 -0.578125 L 0.609375 -0.15625 L 0.84375 -0.15625 L 0.84375 0 L 0.03125 0 L 0.03125 -0.15625 L 0.3125 -0.15625 L 0.3125 -1.90625 L 0.03125 -1.90625 L 0.03125 -2.078125 L 0.609375 -2.078125 L 0.609375 -0.78125 L 1.1875 -1.328125 L 0.921875 -1.328125 L 0.921875 -1.484375 L 1.75 -1.484375 L 1.75 -1.328125 L 1.484375 -1.328125 L 1.015625 -0.875 C 1.035156 -0.832031 1.070312 -0.773438 1.125 -0.703125 C 1.164062 -0.617188 1.203125 -0.550781 1.234375 -0.5 C 1.273438 -0.457031 1.316406 -0.410156 1.359375 -0.359375 C 1.398438 -0.304688 1.441406 -0.265625 1.484375 -0.234375 C 1.535156 -0.203125 1.582031 -0.1875 1.625 -0.1875 C 1.675781 -0.1875 1.722656 -0.195312 1.765625 -0.21875 L 1.8125 -0.03125 C 1.769531 -0.0078125 1.726562 0.00390625 1.6875 0.015625 C 1.65625 0.0234375 1.613281 0.03125 1.5625 0.03125 Z M 1.5625 0.03125 "/></g></g></g></svg>