<svg xmlns="http://www.w3.org/2000/svg" xmlns:xlink="http://www.w3.org/1999/xlink" width="500" zoomAndPan="magnify" viewBox="0 0 375 374.999991" height="500" preserveAspectRatio="xMidYMid meet" version="1.0"><path fill="#0271f7" d="M 341.738281 190.351562 C 322.585938 171.300781 297.757812 161.867188 273.023438 162.175781 C 276.671875 151.636719 282.753906 141.90625 290.863281 133.796875 C 306.472656 118.191406 327.449219 110.183594 349.441406 111.703125 C 349.542969 113.421875 349.644531 115.148438 349.644531 116.976562 C 349.644531 132.171875 344.882812 147.175781 335.859375 159.949219 C 341.640625 163.488281 347.007812 167.652344 352.074219 172.3125 C 368.699219 149.101562 373.765625 120.316406 367.078125 94.074219 C 335.964844 86.160156 301.300781 94.679688 276.46875 119.40625 C 263.5 132.484375 255.1875 148.390625 251.132812 165.015625 C 250.121094 169.070312 249.40625 173.21875 249.003906 177.375 L 248.800781 177.375 C 220.527344 177.375 197.621094 154.46875 197.621094 126.199219 C 218.699219 124.066406 239.273438 114.746094 255.59375 98.527344 C 280.320312 73.699219 288.835938 39.03125 280.929688 7.917969 C 249.8125 0.0117188 215.15625 8.527344 190.324219 33.261719 C 171.269531 52.414062 161.84375 77.242188 162.152344 101.972656 C 151.609375 98.324219 141.875 92.246094 133.769531 84.132812 C 118.164062 68.527344 110.15625 47.546875 111.675781 25.554688 C 113.398438 25.453125 115.121094 25.355469 116.945312 25.355469 C 132.148438 25.355469 147.144531 30.117188 159.921875 39.140625 C 163.464844 33.355469 167.621094 27.988281 172.285156 22.921875 C 149.074219 6.296875 120.289062 1.230469 94.042969 7.917969 C 86.132812 39.03125 94.652344 73.699219 119.378906 98.527344 C 132.453125 111.5 148.363281 119.8125 164.988281 123.863281 C 169.039062 124.875 173.195312 125.589844 177.351562 125.996094 L 177.351562 126.199219 C 177.351562 154.46875 154.441406 177.375 126.171875 177.375 C 124.039062 156.296875 114.71875 135.722656 98.503906 119.410156 C 73.671875 94.679688 39.007812 86.160156 7.894531 94.070312 C -0.0117188 125.183594 8.5 159.84375 33.234375 184.671875 C 52.386719 203.726562 77.214844 213.152344 101.949219 212.847656 C 98.300781 223.386719 92.21875 233.121094 84.109375 241.226562 C 68.5 256.835938 47.519531 264.839844 25.53125 263.320312 C 25.429688 261.601562 25.328125 259.875 25.328125 258.050781 C 25.328125 242.851562 30.089844 227.847656 39.109375 215.078125 C 33.332031 211.535156 27.964844 207.375 22.898438 202.710938 C 11.035156 219.273438 5.058594 238.675781 5.035156 257.964844 L 5.035156 258.515625 C 5.070312 266.074219 6.023438 273.613281 7.894531 280.953125 C 39.007812 288.863281 73.671875 280.34375 98.503906 255.617188 C 111.476562 242.542969 119.785156 226.632812 123.839844 210.007812 C 124.851562 205.953125 125.5625 201.804688 125.96875 197.648438 L 126.171875 197.648438 C 154.445312 197.648438 177.351562 220.554688 177.351562 248.824219 C 156.273438 250.960938 135.699219 260.28125 119.378906 276.496094 C 94.652344 301.328125 86.136719 335.992188 94.042969 367.105469 C 125.160156 375.011719 159.816406 366.496094 184.648438 341.765625 C 203.699219 322.613281 213.128906 297.785156 212.820312 273.050781 C 223.363281 276.699219 233.09375 282.777344 241.203125 290.890625 C 256.808594 306.496094 264.816406 327.476562 263.296875 349.46875 C 261.574219 349.570312 259.847656 349.671875 258.023438 349.671875 C 242.824219 349.671875 227.824219 344.90625 215.050781 335.886719 C 211.507812 341.664062 207.347656 347.035156 202.6875 352.105469 C 225.898438 368.726562 254.683594 373.796875 280.929688 367.105469 C 288.835938 335.992188 280.320312 301.328125 255.59375 276.496094 C 242.519531 263.523438 226.609375 255.210938 209.984375 251.164062 C 205.929688 250.148438 201.777344 249.433594 197.621094 249.027344 L 197.621094 248.824219 C 197.621094 220.554688 220.527344 197.648438 248.800781 197.648438 C 250.929688 218.726562 260.253906 239.296875 276.46875 255.617188 C 301.300781 280.34375 335.964844 288.863281 367.082031 280.953125 C 374.984375 249.839844 366.46875 215.179688 341.738281 190.351562 M 106.207031 192.375 C 84.816406 193.898438 63.230469 185.992188 47.625 170.285156 C 32.015625 154.675781 24.007812 133.699219 25.53125 111.703125 C 27.25 111.597656 28.976562 111.5 30.699219 111.5 C 50.359375 111.5 69.820312 119.40625 84.109375 133.796875 C 99.71875 149.398438 107.722656 170.382812 106.207031 192.375 Z M 204.714844 47.648438 C 220.320312 32.042969 241.300781 24.035156 263.296875 25.554688 C 263.398438 27.277344 263.496094 29 263.496094 30.726562 C 263.5 50.386719 255.59375 69.847656 241.203125 84.132812 C 225.597656 99.742188 204.613281 107.75 182.621094 106.230469 C 182.519531 104.507812 182.417969 102.785156 182.417969 101.058594 C 182.417969 81.402344 190.324219 61.941406 204.714844 47.648438 Z M 170.257812 327.375 C 154.652344 342.980469 133.671875 350.988281 111.675781 349.46875 C 111.574219 347.746094 111.476562 346.023438 111.476562 344.300781 C 111.476562 324.640625 119.378906 305.179688 133.769531 290.890625 C 149.375 275.28125 170.355469 267.273438 192.351562 268.792969 C 192.453125 270.515625 192.550781 272.238281 192.550781 273.964844 C 192.550781 293.621094 184.648438 313.082031 170.257812 327.375 Z M 187.484375 207.78125 C 176.335938 207.78125 167.21875 198.660156 167.21875 187.511719 C 167.21875 176.363281 176.335938 167.246094 187.484375 167.246094 C 198.632812 167.242188 207.753906 176.363281 207.753906 187.511719 C 207.753906 198.660156 198.632812 207.78125 187.484375 207.78125 Z M 349.441406 263.320312 C 328.058594 264.839844 306.472656 256.933594 290.863281 241.226562 C 275.253906 225.621094 267.25 204.644531 268.765625 182.648438 C 270.492188 182.542969 272.214844 182.445312 273.9375 182.445312 C 293.597656 182.445312 313.054688 190.351562 327.347656 204.738281 C 342.953125 220.347656 350.964844 241.324219 349.441406 263.320312 Z M 349.441406 263.320312 " fill-opacity="1" fill-rule="evenodd"/></svg>